<svg width="25" height="29" viewBox="0 0 25 29" xmlns="http://www.w3.org/2000/svg"><path d="M10.142.5h3.529v3.443h-3.529zm5.767 4.303v3.529a9.92 9.92 0 012.238 1.635 8.433 8.433 0 012.5 6.2 8.718 8.718 0 01-2.5 6.2 8.376 8.376 0 01-6.111 2.5 8.078 8.078 0 01-5.852-2.5 8.241 8.241 0 01-2.582-6.283 8.376 8.376 0 012.5-6.111A8.641 8.641 0 017.819 8.59V4.975a10.9 10.9 0 00-4.131 2.754 11.064 11.064 0 00-3.529 8.348 11.292 11.292 0 003.873 8.951 12.189 12.189 0 0016.61-.344 11.436 11.436 0 003.529-8.434 11.575 11.575 0 00-3.529-8.434 12.284 12.284 0 00-4.733-3.013z" fill="#4B4B4B"/></svg>